<svg width="24" height="24" viewBox="0 0 24 24" fill="none" xmlns="http://www.w3.org/2000/svg">
<path d="M19.6238 5.32692C18.2214 4.71365 16.7181 4.26037 15.146 4.00262C15.132 4.00002 15.1175 4.0017 15.1046 4.00743C15.0916 4.01316 15.0808 4.02266 15.0736 4.03462C14.8811 4.36258 14.6666 4.79009 14.5163 5.12783C12.849 4.88629 11.154 4.88629 9.4867 5.12783C9.31926 4.75352 9.13044 4.38856 8.92113 4.03462C8.91403 4.02252 8.9033 4.0128 8.89036 4.00676C8.87742 4.00073 8.86289 3.99866 8.84871 4.00084C7.27759 4.25859 5.7743 4.71187 4.37093 5.32603C4.35885 5.33094 4.34862 5.33931 4.34159 5.35002C1.48901 9.41623 0.707116 13.382 1.09119 17.298C1.09226 17.3076 1.09533 17.3169 1.10021 17.3253C1.1051 17.3337 1.1117 17.341 1.1196 17.3469C2.78458 18.5222 4.64164 19.4176 6.61303 19.9955C6.62677 19.9996 6.64147 19.9996 6.65521 19.9954C6.66894 19.9913 6.68108 19.9833 6.69003 19.9724C7.11424 19.4223 7.49016 18.8387 7.81383 18.2277C7.81832 18.2193 7.82091 18.2101 7.82142 18.2007C7.82193 18.1913 7.82035 18.1819 7.81679 18.1731C7.81322 18.1644 7.80776 18.1565 7.80076 18.1499C7.79377 18.1434 7.78541 18.1384 7.77624 18.1352C7.1841 17.919 6.61036 17.6581 6.06029 17.3549C6.05041 17.3494 6.04208 17.3416 6.03606 17.3323C6.03003 17.3229 6.02649 17.3123 6.02577 17.3012C6.02504 17.2902 6.02714 17.2792 6.03189 17.2692C6.03664 17.2592 6.04388 17.2504 6.05296 17.2438C6.16846 17.1611 6.28395 17.0749 6.39395 16.9887C6.40385 16.9809 6.41578 16.976 6.4284 16.9744C6.44103 16.9729 6.45385 16.9747 6.46545 16.9798C10.0651 18.5476 13.9636 18.5476 17.521 16.9798C17.5327 16.9744 17.5456 16.9723 17.5584 16.9737C17.5712 16.9752 17.5834 16.98 17.5935 16.9878C17.7035 17.0749 17.818 17.1611 17.9345 17.2438C17.9436 17.2503 17.951 17.2589 17.9559 17.2688C17.9608 17.2788 17.9631 17.2898 17.9625 17.3008C17.962 17.3118 17.9586 17.3225 17.9528 17.3319C17.9469 17.3414 17.9387 17.3492 17.929 17.3549C17.3808 17.6606 16.8106 17.9193 16.2121 18.1343C16.2029 18.1376 16.1945 18.1427 16.1875 18.1493C16.1805 18.1559 16.1751 18.1639 16.1715 18.1728C16.1679 18.1816 16.1664 18.1911 16.1669 18.2005C16.1674 18.21 16.17 18.2192 16.1745 18.2277C16.5045 18.8383 16.8821 19.4195 17.2974 19.9715C17.306 19.9828 17.318 19.9913 17.3318 19.9957C17.3456 20.0002 17.3605 20.0004 17.3744 19.9964C19.3491 19.4201 21.2092 18.5243 22.8761 17.3469C22.8842 17.3414 22.891 17.3342 22.8961 17.326C22.9011 17.3177 22.9043 17.3084 22.9054 17.2989C23.3637 12.7714 22.1372 8.83763 19.6522 5.3518C19.6461 5.34047 19.6361 5.33164 19.6238 5.32692ZM8.3519 14.9134C7.26843 14.9134 6.3747 13.9633 6.3747 12.7981C6.3747 11.632 7.25101 10.6827 8.3519 10.6827C9.46103 10.6827 10.3465 11.64 10.3291 12.7981C10.3291 13.9642 9.45278 14.9134 8.3519 14.9134ZM15.6621 14.9134C14.5777 14.9134 13.6849 13.9633 13.6849 12.7981C13.6849 11.632 14.5603 10.6827 15.6621 10.6827C16.7712 10.6827 17.6567 11.64 17.6393 12.7981C17.6393 13.9642 16.7722 14.9134 15.6621 14.9134Z" fill="#100D18"/>
</svg>
