<svg width="20" height="20" viewBox="0 0 20 20" fill="none" xmlns="http://www.w3.org/2000/svg">
<path d="M12.5316 17.9415C15.8959 16.8696 18.3327 13.7193 18.3327 9.99984C18.3327 5.39746 14.6017 1.6665 9.99935 1.6665C5.39698 1.6665 1.66602 5.39746 1.66602 9.99984C1.66602 14.6022 5.39698 18.3332 9.99935 18.3332C10.2651 18.3332 10.528 18.3207 10.7875 18.2964V14.7236C8.30684 14.4496 6.66602 13.0523 6.66602 10.8332C6.66602 8.61399 8.30684 7.21673 10.7875 6.94276L10.7552 4.99984L12.4993 5.4165L12.5316 6.94276C15.0123 7.20303 16.666 8.61399 16.666 10.8332C16.666 13.0523 15.0123 14.4633 12.5316 14.7236V17.9415Z" fill="#1877F2"/>
<path d="M12.5316 8.65509V12.9976C14.0691 12.8058 14.8831 12.1071 14.8831 10.8332C14.8831 9.5592 14.0691 8.84687 12.5316 8.65509Z" fill="#1877F2"/>
<path d="M10.7875 8.66879C9.24999 8.84687 8.43604 9.5592 8.43604 10.8332C8.43604 12.1071 9.24999 12.8058 10.7875 12.9839V8.66879Z" fill="#1877F2"/>
<path fill-rule="evenodd" clip-rule="evenodd" d="M10.7875 18.2966V14.7237C8.30684 14.4498 6.66602 13.0525 6.66602 10.8333C6.66602 8.61416 8.30684 7.21689 10.7875 6.94292L10.7552 5L12.4993 5.41667L12.5316 6.94292C15.0123 7.2032 16.666 8.61416 16.666 10.8333C16.666 13.0525 15.0123 14.4635 12.5316 14.7237V17.9416C11.9778 18.1354 11.3882 18.2402 10.7875 18.2966ZM12.5316 8.65525V12.9977C14.0691 12.8059 14.8831 12.1073 14.8831 10.8333C14.8831 9.55936 14.0691 8.84703 12.5316 8.65525ZM8.43604 10.8333C8.43604 9.55936 9.24999 8.84703 10.7875 8.66895V12.984C9.24999 12.8059 8.43604 12.1073 8.43604 10.8333Z" fill="white"/>
</svg>
