<svg width="24" height="24" viewBox="0 0 24 24" fill="none" xmlns="http://www.w3.org/2000/svg">
<path d="M15.0388 21.5299C19.0758 20.2438 22 16.4634 22 12C22 6.47715 17.5228 2 12 2C6.47715 2 2 6.47715 2 12C2 17.5228 6.47715 22 12 22C12.319 22 12.6344 21.9851 12.9457 21.9559V17.6685C9.96899 17.3397 8 15.663 8 13C8 10.337 9.96899 8.66027 12.9457 8.33151L12.907 6L15 6.5L15.0388 8.33151C18.0155 8.64384 20 10.337 20 13C20 15.663 18.0155 17.3562 15.0388 17.6685V21.5299Z" fill="#100D18"/>
<path d="M15.0388 10.3863V15.5973C16.8837 15.3671 17.8605 14.5288 17.8605 13C17.8605 11.4712 16.8837 10.6164 15.0388 10.3863Z" fill="#100D18"/>
<path d="M12.9457 10.4027C11.1008 10.6164 10.124 11.4712 10.124 13C10.124 14.5288 11.1008 15.3671 12.9457 15.5808V10.4027Z" fill="#100D18"/>
</svg>
