<svg width="24" height="24" viewBox="0 0 24 24" fill="none" xmlns="http://www.w3.org/2000/svg">
<path d="M12.1833 6.57956C13.5316 6.57956 14.7422 7.03365 15.694 7.92547L18.328 5.3441C16.7376 3.89182 14.6587 3 12.1833 3C8.59333 3 5.48794 5.01676 3.97681 7.95814C3.35482 9.17314 3 10.5477 3 12C3 13.4522 3.35445 14.8268 3.97644 16.0418C5.48757 18.9832 8.59333 21 12.1833 21C14.6629 21 16.7421 20.1942 18.2616 18.8196C19.9981 17.2528 21 14.9455 21 12.2046C21 11.5664 20.9416 10.9528 20.833 10.3637H12.1837V13.845H17.1262C16.9133 14.97 16.2662 15.9232 15.2936 16.5614C14.4712 17.1014 13.4189 17.4204 12.1833 17.4204C9.79138 17.4204 7.76679 15.8373 7.04462 13.71C6.86095 13.17 6.75696 12.5932 6.75696 12C6.75696 11.4068 6.86132 10.83 7.045 10.29C7.76717 8.16268 9.79138 6.57956 12.1833 6.57956Z" fill="#100D18"/>
</svg>
