<svg width="20" height="20" viewBox="0 0 20 20" fill="none" xmlns="http://www.w3.org/2000/svg">
<path fill-rule="evenodd" clip-rule="evenodd" d="M17.4993 10.1708C17.4993 9.63899 17.4506 9.12763 17.3601 8.63672H10.1523V11.5379H14.2711C14.0937 12.4754 13.5545 13.2697 12.7439 13.8015V15.6833H15.2173C16.6644 14.3776 17.4993 12.4549 17.4993 10.1708Z" fill="#4285F4"/>
<path fill-rule="evenodd" clip-rule="evenodd" d="M10.1535 17.4998C12.2198 17.4998 13.9522 16.8282 15.2184 15.6828L12.7451 13.8009C12.0598 14.2509 11.1832 14.5169 10.1535 14.5169C8.16023 14.5169 6.47308 13.1975 5.87127 11.4248H3.31445V13.368C4.57373 15.8191 7.16186 17.4998 10.1535 17.4998Z" fill="#34A853"/>
<path fill-rule="evenodd" clip-rule="evenodd" d="M5.87083 11.425C5.71776 10.975 5.6308 10.4943 5.6308 10C5.6308 9.50571 5.71776 9.02503 5.87083 8.57502V6.63184H3.31401C2.79569 7.64434 2.5 8.7898 2.5 10C2.5 11.2103 2.79569 12.3557 3.31401 13.3682L5.87083 11.425Z" fill="#FBBC05"/>
<path fill-rule="evenodd" clip-rule="evenodd" d="M10.1535 5.48296C11.2771 5.48296 12.2859 5.86137 13.0791 6.60456L15.2741 4.45342C13.9487 3.24318 12.2164 2.5 10.1535 2.5C7.16186 2.5 4.57373 4.18069 3.31445 6.63183L5.87127 8.57502C6.47308 6.80229 8.16023 5.48296 10.1535 5.48296Z" fill="#EA4335"/>
</svg>
