<svg width="24" height="24" viewBox="0 0 24 24" fill="none" xmlns="http://www.w3.org/2000/svg">
<path d="M17.1928 8.39778C17.8547 8.39778 18.3913 7.86102 18.3913 7.19889C18.3913 6.53676 17.8547 6 17.1928 6C16.531 6 15.9944 6.53676 15.9944 7.19889C15.9944 7.86102 16.531 8.39778 17.1928 8.39778Z" fill="#100D18"/>
<path d="M14.8409 7.5C14.9408 7.5 15.0244 7.57411 15.0458 7.67176C15.1631 8.20746 15.4757 8.67005 15.9051 8.98111C15.9599 9.02077 15.9944 9.08328 15.9944 9.15089V15.7C15.9944 16.1418 15.6364 16.5 15.1948 16.5H14.7618C14.3201 16.5 13.9621 16.1418 13.9621 15.7V11.5773C13.9621 11.3886 13.7248 11.3049 13.6064 11.4519L9.78403 16.2017C9.63223 16.3903 9.4032 16.5 9.16113 16.5H8.7973C8.35565 16.5 7.99761 16.1418 7.99761 15.7V8.3C7.99761 7.85817 8.35564 7.5 8.7973 7.5H9.23027C9.67193 7.5 10.03 7.85817 10.03 8.3V12.4345C10.03 12.6233 10.2675 12.707 10.3857 12.5597L14.208 7.79903C14.3598 7.60998 14.5891 7.5 14.8315 7.5H14.8409Z" fill="#100D18"/>
<path fill-rule="evenodd" clip-rule="evenodd" d="M11.996 2C9.28175 2 8.94048 2.01191 7.87302 2.05955C6.80952 2.10719 6.08333 2.27789 5.44841 2.52402C4.78968 2.77809 4.23413 3.12346 3.67857 3.67924C3.12302 4.23501 2.78175 4.79476 2.52381 5.44978C2.27778 6.08495 2.10714 6.81143 2.05952 7.87932C2.0119 8.94323 2 9.28464 2 12C2 14.7154 2.0119 15.0568 2.05952 16.1247C2.10714 17.1886 2.27778 17.915 2.52381 18.5542C2.77778 19.2132 3.12302 19.769 3.67857 20.3247C4.23413 20.8805 4.79365 21.2219 5.44841 21.48C6.08333 21.7261 6.80952 21.8968 7.87698 21.9444C8.94445 21.9921 9.28175 22.004 12 22.004C14.7183 22.004 15.0556 21.9921 16.123 21.9444C17.1865 21.8968 17.9127 21.7261 18.5516 21.48C19.2103 21.2259 19.7659 20.8805 20.3214 20.3247C20.877 19.769 21.2183 19.2092 21.4762 18.5542C21.7222 17.919 21.8929 17.1925 21.9405 16.1247C21.9881 15.0568 22 14.7193 22 12C22 9.28067 21.9881 8.94323 21.9405 7.87535C21.8929 6.81143 21.7222 6.08495 21.4762 5.44581C21.2222 4.78682 20.877 4.23104 20.3214 3.67527C19.7659 3.11949 19.2064 2.77809 18.5516 2.52005C17.9167 2.27392 17.1905 2.10322 16.123 2.05558C15.0516 2.01191 14.7103 2 11.996 2ZM11.996 3.8023C14.6667 3.8023 14.9802 3.81421 16.0357 3.86185C17.0119 3.90552 17.5397 4.06828 17.8929 4.20722C18.3611 4.38984 18.6944 4.60421 19.0437 4.95355C19.3929 5.3029 19.6111 5.63636 19.7897 6.1048C19.9246 6.45812 20.0913 6.9861 20.1349 7.96268C20.1825 9.01866 20.1944 9.33227 20.1944 12.004C20.1944 14.6757 20.1825 14.9893 20.1349 16.0453C20.0913 17.0218 19.9286 17.5498 19.7897 17.9031C19.6071 18.3716 19.3929 18.705 19.0437 19.0544C18.6944 19.4037 18.3611 19.6221 17.8929 19.8007C17.5397 19.9357 17.0119 20.1024 16.0357 20.1461C14.9802 20.1937 14.6667 20.2056 11.996 20.2056C9.3254 20.2056 9.01191 20.1937 7.95635 20.1461C6.98016 20.1024 6.45238 19.9397 6.09921 19.8007C5.63095 19.6181 5.29762 19.4037 4.94841 19.0544C4.59921 18.705 4.38095 18.3716 4.20238 17.9031C4.06746 17.5498 3.90079 17.0218 3.85714 16.0453C3.80952 14.9893 3.79762 14.6757 3.79762 12.004C3.79762 9.33227 3.80952 9.01866 3.85714 7.96268C3.90079 6.9861 4.06349 6.45812 4.20238 6.1048C4.38492 5.63636 4.59921 5.3029 4.94841 4.95355C5.29762 4.60421 5.63095 4.38587 6.09921 4.20722C6.45238 4.07225 6.98016 3.90552 7.95635 3.86185C9.01191 3.81024 9.32937 3.8023 11.996 3.8023Z" fill="#100D18"/>
</svg>
