<svg width="20" height="20" viewBox="0 0 20 20" fill="none" xmlns="http://www.w3.org/2000/svg">
<path fill-rule="evenodd" clip-rule="evenodd" d="M8.87088 1.71898C5.42616 2.22615 2.71832 4.65139 1.87411 7.98557C1.72633 8.56905 1.62527 9.27738 1.68205 9.33145C1.70251 9.35087 2.16888 9.5516 2.71848 9.77742C3.26808 10.0033 4.25975 10.4108 4.92221 10.683L6.12667 11.178L6.45052 11.0235C6.80869 10.8526 7.08206 10.7837 7.40089 10.7837H7.61207L8.56902 9.38399C9.09534 8.61419 9.54611 7.94583 9.57072 7.89881C9.59529 7.85175 9.61544 7.71805 9.61544 7.60165C9.61544 7.15544 9.85742 6.48094 10.1783 6.03277C10.8154 5.14298 11.787 4.67672 12.9049 4.72433C14.0662 4.77378 15.0311 5.40333 15.563 6.45878C15.8039 6.93682 15.8658 7.22055 15.8658 7.84729C15.8658 8.49693 15.8019 8.77146 15.528 9.29938C15.0368 10.246 14.0555 10.8987 13.0196 10.9678L12.6814 10.9904L11.2758 11.9943L9.87015 12.9982L9.82364 13.3298C9.76294 13.7627 9.71568 13.9177 9.54365 14.2486C9.2577 14.7985 8.65742 15.2641 8.02992 15.4228C6.88071 15.7134 5.62182 15.017 5.23896 13.8789C5.19147 13.7377 5.12074 13.6019 5.08178 13.5772C4.92449 13.4775 2.00884 12.3018 1.98293 12.3277C1.93591 12.3746 2.2014 13.083 2.48273 13.6613C3.5614 15.8786 5.59435 17.5227 7.9789 18.106C8.77083 18.2998 9.28344 18.3506 10.2228 18.3283C11.0981 18.3076 11.4398 18.2618 12.1854 18.0653C15.0186 17.3186 17.3314 15.0079 18.0794 12.1767C18.3048 11.3238 18.3327 11.0839 18.3327 10.0006C18.3327 8.9173 18.3048 8.67742 18.0794 7.8245C17.7943 6.74525 17.2646 5.70382 16.5234 4.76489C16.2128 4.37134 15.4901 3.66739 15.0711 3.35027C13.924 2.48196 12.5243 1.90428 11.1231 1.72078C10.5768 1.64921 9.35127 1.64823 8.87088 1.71898ZM12.3594 5.77778C11.7589 5.87722 11.147 6.34986 10.8647 6.93244C10.4627 7.76202 10.62 8.66012 11.284 9.3262C11.9398 9.98414 12.8423 10.1364 13.6725 9.72911C14.995 9.08021 15.2626 7.34658 14.1954 6.34074C13.6795 5.85456 13.0541 5.66279 12.3594 5.77778ZM13.4337 6.43368C13.7583 6.59331 14.083 6.93792 14.202 7.24886C14.5413 8.13611 14.0819 9.08464 13.1841 9.35036C12.6192 9.51757 11.9687 9.3271 11.5751 8.87917C11.5039 8.79816 11.391 8.61654 11.3241 8.47555C11.2147 8.2448 11.2025 8.18211 11.2025 7.84729C11.2025 7.51247 11.2147 7.44978 11.3241 7.21903C11.6272 6.57995 12.1443 6.26486 12.8396 6.29552C13.1276 6.3082 13.2243 6.33072 13.4337 6.43368ZM6.99436 11.4161C6.92135 11.4371 6.87727 11.4678 6.89639 11.4843C6.91547 11.5008 7.17799 11.6159 7.47973 11.74C7.78147 11.8642 8.10163 12.0213 8.19117 12.0892C8.888 12.6177 8.85677 13.7215 8.13181 14.1863C7.88716 14.3432 7.50853 14.4388 7.26463 14.4053C7.16106 14.391 6.81602 14.2749 6.49789 14.1472C6.17977 14.0195 5.91216 13.9224 5.90323 13.9313C5.86925 13.9652 6.08615 14.2562 6.28025 14.4371C6.58861 14.7245 6.92985 14.8676 7.35492 14.8879C8.13008 14.9249 8.75367 14.5628 9.07395 13.8895C9.31793 13.3766 9.30923 12.8521 9.04804 12.324C8.74701 11.7155 8.1657 11.3671 7.46378 11.3745C7.27858 11.3764 7.06732 11.3952 6.99436 11.4161Z" fill="url(#paint0_linear_4524_125840)"/>
<path d="M14.202 7.24904C14.083 6.9381 13.7583 6.59349 13.4337 6.43386C13.2243 6.3309 13.1276 6.30838 12.8396 6.2957C12.1443 6.26504 11.6272 6.58014 11.3241 7.21921C11.2147 7.44997 11.2025 7.51265 11.2025 7.84747C11.2025 8.1823 11.2147 8.24498 11.3241 8.47573C11.391 8.61672 11.5039 8.79834 11.5751 8.87935C11.9687 9.32728 12.6192 9.51775 13.1841 9.35054C14.0819 9.08482 14.5413 8.13629 14.202 7.24904Z" fill="white"/>
<path fill-rule="evenodd" clip-rule="evenodd" d="M1.66602 10C1.66602 10.8086 1.78116 11.5902 1.99595 12.3294C2.20891 12.3827 4.92997 13.4811 5.08178 13.5774C5.12074 13.6021 5.19147 13.7379 5.23896 13.8791C5.62182 15.0172 6.88071 15.7136 8.02992 15.4229C8.65742 15.2643 9.2577 14.7986 9.54364 14.2487C9.71568 13.9179 9.76294 13.7629 9.82364 13.3299L9.87015 12.9984L12.6814 10.9906L13.0196 10.968C14.0555 10.8989 15.0368 10.2462 15.528 9.29956C15.8019 8.77164 15.8658 8.49711 15.8658 7.84747C15.8658 7.22073 15.8039 6.937 15.563 6.45896C15.0311 5.40351 14.0662 4.77396 12.9049 4.72451C11.787 4.6769 10.8154 5.14316 10.1783 6.03295C9.85742 6.48112 9.61544 7.15562 9.61544 7.60183C9.61544 7.71823 9.59529 7.85193 9.57072 7.89899C9.54611 7.94602 9.09534 8.61437 8.56902 9.38417L7.61207 10.7838H7.40089C7.08206 10.7838 6.80869 10.8528 6.45052 11.0236L6.12667 11.1781L2.71848 9.7776C2.20541 9.56679 1.76489 9.37785 1.69194 9.33786C1.67476 9.55632 1.66602 9.77715 1.66602 10ZM10.8647 6.93262C11.147 6.35004 11.7589 5.8774 12.3594 5.77796C13.0541 5.66297 13.6795 5.85474 14.1954 6.34092C15.2626 7.34676 14.995 9.08039 13.6725 9.72929C12.8423 10.1366 11.9398 9.98432 11.284 9.32638C10.62 8.6603 10.4627 7.7622 10.8647 6.93262ZM6.89639 11.4845C6.87726 11.4679 6.92135 11.4373 6.99436 11.4163C7.06732 11.3953 7.27858 11.3766 7.46378 11.3746C8.1657 11.3673 8.74701 11.7157 9.04804 12.3242C9.30923 12.8523 9.31793 13.3768 9.07395 13.8897C8.75367 14.5629 8.13008 14.9251 7.35492 14.8881C6.92985 14.8678 6.58861 14.7246 6.28025 14.4373C6.08615 14.2564 5.86925 13.9654 5.90323 13.9315C5.91216 13.9225 6.17977 14.0197 6.49789 14.1474C6.81602 14.2751 7.16106 14.3912 7.26463 14.4054C7.50853 14.4389 7.88716 14.3433 8.13181 14.1865C8.85677 13.7217 8.888 12.6179 8.19117 12.0894C8.10163 12.0215 7.78147 11.8643 7.47973 11.7402C7.17799 11.6161 6.91547 11.501 6.89639 11.4845Z" fill="white"/>
<defs>
<linearGradient id="paint0_linear_4524_125840" x1="9.99935" y1="1.6665" x2="9.99935" y2="18.3332" gradientUnits="userSpaceOnUse">
<stop offset="0.00833321" stop-color="#101D2F"/>
<stop offset="1" stop-color="#1383B4"/>
</linearGradient>
</defs>
</svg>
