<svg width="20" height="20" viewBox="0 0 20 20" fill="none" xmlns="http://www.w3.org/2000/svg">
<path d="M18.3337 4.96337C17.7386 5.22709 17.0993 5.40527 16.4271 5.48581C17.1206 5.07085 17.6395 4.41775 17.8868 3.64838C17.2353 4.03539 16.5222 4.3078 15.7786 4.45377C15.2785 3.91984 14.6161 3.56594 13.8943 3.44702C13.1725 3.3281 12.4316 3.45081 11.7867 3.7961C11.1418 4.14139 10.6289 4.68994 10.3277 5.35659C10.0265 6.02324 9.95377 6.77069 10.1209 7.48289C8.80068 7.4166 7.50916 7.07346 6.33016 6.47573C5.15115 5.878 4.11101 5.03904 3.27722 4.0133C2.99213 4.50509 2.8282 5.07527 2.8282 5.68252C2.82788 6.22918 2.9625 6.76747 3.22012 7.24963C3.47773 7.73179 3.85037 8.1429 4.30498 8.4465C3.77776 8.42972 3.26216 8.28726 2.80112 8.03098V8.07374C2.80106 8.84046 3.06628 9.58358 3.55175 10.177C4.03723 10.7704 4.71307 11.1776 5.4646 11.3295C4.97551 11.4619 4.46274 11.4814 3.96501 11.3865C4.17705 12.0462 4.59007 12.6231 5.14627 13.0364C5.70247 13.4498 6.37399 13.6788 7.06682 13.6915C5.89069 14.6148 4.43818 15.1156 2.94295 15.1134C2.67808 15.1135 2.41344 15.098 2.15039 15.0671C3.66814 16.0429 5.43491 16.5608 7.2393 16.5588C13.3474 16.5588 16.6866 11.4998 16.6866 7.11226C16.6866 6.96972 16.683 6.82575 16.6766 6.6832C17.3261 6.21349 17.8868 5.63184 18.3323 4.96551L18.3337 4.96337Z" fill="#1D9BF0"/>
</svg>
