<svg width="24" height="24" viewBox="0 0 24 24" fill="none" xmlns="http://www.w3.org/2000/svg">
<path d="M15.75 7.76282C15.75 7.35812 16.0858 7.03004 16.5001 7.03004C16.9144 7.03004 17.2502 7.35812 17.2502 7.76282V10.6914C17.2502 11.0961 16.9144 11.4241 16.5001 11.4241C16.0858 11.4241 15.75 11.0961 15.75 10.6914V7.76282Z" fill="#100D18"/>
<path d="M11.6247 7.76282C11.6247 7.35812 11.9605 7.03004 12.3748 7.03004C12.7891 7.03004 13.1249 7.35812 13.1249 7.76282V10.6914C13.1249 11.0961 12.7891 11.4241 12.3748 11.4241C11.9605 11.4241 11.6247 11.0961 11.6247 10.6914V7.76282Z" fill="#100D18"/>
<path fill-rule="evenodd" clip-rule="evenodd" d="M3 7.19434C3 6.85428 3.13828 6.52815 3.38443 6.28769L6.36546 3.37555C6.6116 3.13509 6.94545 3 7.29355 3H19.6875C20.4124 3 21 3.57406 21 4.2822V12.7264C21 13.0665 20.8617 13.3927 20.6155 13.6332L14.6328 19.4765C14.3867 19.7169 14.0528 19.852 13.7048 19.852H11.7942C11.4461 19.852 11.1123 19.987 10.8661 20.2275L9.37559 21.6836C8.68368 22.3595 7.50064 21.8808 7.50064 20.9249C7.50064 20.3323 7.00891 19.852 6.40232 19.852H4.31253C3.58764 19.852 3 19.2779 3 18.5698V7.19434ZM15.957 15.4553C16.3051 15.4553 16.639 15.3202 16.8851 15.0797L19.1154 12.901C19.3615 12.6606 19.4998 12.3344 19.4998 11.9944V5.74776C19.4998 5.03962 18.9122 4.46556 18.1873 4.46556H8.81317C8.08828 4.46556 7.50064 5.03962 7.50064 5.74776V14.1731C7.50064 14.8812 8.08828 15.4553 8.81317 15.4553H10.1063C10.5309 15.4553 10.8752 15.7916 10.8752 16.2064C10.8752 16.8755 11.7033 17.2106 12.1877 16.7375L13.1158 15.8308C13.3619 15.5904 13.6958 15.4553 14.0439 15.4553H15.957Z" fill="#100D18"/>
</svg>
