<svg width="20" height="20" viewBox="0 0 20 20" fill="none" xmlns="http://www.w3.org/2000/svg">
<path d="M13.125 6.46902C13.125 6.13176 13.4048 5.85837 13.7501 5.85837C14.0953 5.85837 14.3752 6.13176 14.3752 6.46902V8.90947C14.3752 9.24672 14.0953 9.52012 13.7501 9.52012C13.4048 9.52012 13.125 9.24672 13.125 8.90947V6.46902Z" fill="#9146FF"/>
<path d="M9.68724 6.46902C9.68724 6.13176 9.9671 5.85837 10.3123 5.85837C10.6576 5.85837 10.9374 6.13176 10.9374 6.46902V8.90947C10.9374 9.24672 10.6576 9.52012 10.3123 9.52012C9.9671 9.52012 9.68724 9.24672 9.68724 8.90947V6.46902Z" fill="#9146FF"/>
<path fill-rule="evenodd" clip-rule="evenodd" d="M2.5 5.99529C2.5 5.7119 2.61524 5.44013 2.82036 5.23974L5.30455 2.81296C5.50967 2.61257 5.78787 2.5 6.07796 2.5H16.4062C17.0103 2.5 17.5 2.97838 17.5 3.5685V10.6054C17.5 10.8888 17.3847 11.1606 17.1796 11.361L12.194 16.2304C11.9889 16.4308 11.7107 16.5433 11.4207 16.5433H9.82853C9.53844 16.5433 9.26024 16.6559 9.05511 16.8563L7.81299 18.0697C7.2364 18.6329 6.25053 18.234 6.25053 17.4374C6.25053 16.9436 5.84075 16.5433 5.33527 16.5433H3.59377C2.9897 16.5433 2.5 16.0649 2.5 15.4748V5.99529ZM13.2975 12.8794C13.5876 12.8794 13.8658 12.7668 14.0709 12.5664L15.9295 10.7509C16.1346 10.5505 16.2498 10.2787 16.2498 9.99531V4.7898C16.2498 4.19969 15.7601 3.7213 15.1561 3.7213H7.34431C6.74023 3.7213 6.25053 4.19968 6.25053 4.7898V11.8109C6.25053 12.401 6.74023 12.8794 7.34431 12.8794H8.42192C8.77578 12.8794 9.06264 13.1596 9.06264 13.5053C9.06264 14.0629 9.75279 14.3422 10.1564 13.9479L10.9298 13.1924C11.135 12.992 11.4132 12.8794 11.7032 12.8794H13.2975Z" fill="#9146FF"/>
<path fill-rule="evenodd" clip-rule="evenodd" d="M14.0704 12.5663C13.8653 12.7667 13.5871 12.8793 13.297 12.8793H11.7027C11.4126 12.8793 11.1344 12.9919 10.9293 13.1922L10.1559 13.9478C9.75225 14.3421 9.06211 14.0628 9.06211 13.5052C9.06211 13.1595 8.77525 12.8793 8.42139 12.8793H7.34377C6.7397 12.8793 6.25 12.4009 6.25 11.8108V4.78969C6.25 4.19958 6.7397 3.72119 7.34377 3.72119H15.1555C15.7596 3.72119 16.2493 4.19958 16.2493 4.78969V9.9952C16.2493 10.2786 16.1341 10.5504 15.9289 10.7508L14.0704 12.5663ZM9.6867 6.46891C9.6867 6.13165 9.96657 5.85826 10.3118 5.85826C10.657 5.85826 10.9369 6.13165 10.9369 6.46891V8.90936C10.9369 9.24661 10.657 9.52001 10.3118 9.52001C9.96657 9.52001 9.6867 9.24661 9.6867 8.90936V6.46891ZM13.1244 6.46891C13.1244 6.13165 13.4043 5.85826 13.7495 5.85826C14.0948 5.85826 14.3746 6.13165 14.3746 6.46891V8.90936C14.3746 9.24661 14.0948 9.52001 13.7495 9.52001C13.4043 9.52001 13.1244 9.24661 13.1244 8.90936V6.46891Z" fill="white"/>
</svg>
