<svg width="24" height="24" viewBox="0 0 24 24" fill="none" xmlns="http://www.w3.org/2000/svg">
<path d="M22.0001 5.9559C21.2859 6.27236 20.5187 6.48618 19.7122 6.58282C20.5444 6.08487 21.167 5.30116 21.4638 4.37791C20.6819 4.84232 19.8262 5.16921 18.9339 5.34438C18.3338 4.70366 17.539 4.27898 16.6728 4.13627C15.8066 3.99357 14.9176 4.14082 14.1437 4.55517C13.3698 4.96952 12.7543 5.62778 12.3928 6.42776C12.0314 7.22774 11.9441 8.12468 12.1447 8.97932C10.5604 8.89977 9.01061 8.488 7.5958 7.77072C6.18099 7.05345 4.93282 6.0467 3.93227 4.81581C3.59016 5.40596 3.39345 6.09018 3.39345 6.81888C3.39307 7.47487 3.55461 8.12082 3.86375 8.69941C4.17289 9.278 4.62006 9.77134 5.16559 10.1357C4.53292 10.1155 3.91421 9.94457 3.36095 9.63703V9.68834C3.36088 10.6084 3.67914 11.5001 4.26171 12.2123C4.84429 12.9244 5.6553 13.413 6.55713 13.5953C5.97022 13.7541 5.35489 13.7775 4.75762 13.6637C5.01206 14.4553 5.5077 15.1476 6.17513 15.6436C6.84257 16.1396 7.64839 16.4144 8.4798 16.4297C7.06844 17.5376 5.32543 18.1386 3.53115 18.1359C3.21331 18.136 2.89574 18.1175 2.58008 18.0803C4.40138 19.2514 6.5215 19.8729 8.68677 19.8704C16.0165 19.8704 20.0235 13.7997 20.0235 8.53457C20.0235 8.36351 20.0192 8.19075 20.0115 8.01969C20.7909 7.45604 21.4637 6.75807 21.9983 5.95847L22.0001 5.9559Z" fill="#100D18"/>
</svg>
