<svg width="24" height="24" viewBox="0 0 24 24" fill="none" xmlns="http://www.w3.org/2000/svg">
<path fill-rule="evenodd" clip-rule="evenodd" d="M22.4954 6.45246C22.6475 5.95198 22.4954 5.5835 21.7667 5.5835H19.3605C18.7482 5.5835 18.4659 5.90157 18.3128 6.25263C18.3128 6.25263 17.0891 9.18217 15.3558 11.0851C14.7948 11.6369 14.54 11.812 14.2338 11.812C14.0807 11.812 13.8507 11.6369 13.8507 11.1355V6.45246C13.8507 5.85115 13.682 5.5835 13.1724 5.5835H9.38854C9.0063 5.5835 8.77623 5.86215 8.77623 6.12706C8.77623 6.69628 9.64336 6.82827 9.73227 8.43054V11.9119C9.73227 12.6754 9.59203 12.8138 9.28587 12.8138C8.47008 12.8138 6.48558 9.87056 5.30772 6.50287C5.07948 5.84748 4.84849 5.5835 4.23343 5.5835H1.82545C1.13798 5.5835 1.00049 5.90157 1.00049 6.25263C1.00049 6.87777 1.81629 9.9833 4.7999 14.0907C6.78898 16.8956 9.58928 18.4163 12.1402 18.4163C13.6701 18.4163 13.8589 18.0789 13.8589 17.4969V15.3767C13.8589 14.7012 14.0038 14.5664 14.4886 14.5664C14.8461 14.5664 15.4575 14.7424 16.8856 16.0945C18.5172 17.6976 18.7858 18.4163 19.7043 18.4163H22.1104C22.7979 18.4163 23.1425 18.0789 22.9445 17.4116C22.7264 16.748 21.9472 15.7846 20.9142 14.6416C20.3532 13.9908 19.5118 13.2896 19.256 12.9385C18.8995 12.4884 19.0012 12.2877 19.256 11.8871C19.256 11.8871 22.1892 7.83015 22.4945 6.45246H22.4954Z" fill="#100D18"/>
</svg>
