<svg width="24" height="24" viewBox="0 0 24 24" fill="none" xmlns="http://www.w3.org/2000/svg">
<path fill-rule="evenodd" clip-rule="evenodd" d="M20.6078 4.77146C21.5502 5.02517 22.2932 5.76816 22.5469 6.7105C23.018 8.43207 22.9999 12.0202 22.9999 12.0202C22.9999 12.0202 22.9999 15.5902 22.5469 17.3118C22.2932 18.2541 21.5502 18.9971 20.6078 19.2508C18.8863 19.7039 12 19.7039 12 19.7039C12 19.7039 5.13178 19.7039 3.39208 19.2327C2.44975 18.979 1.70675 18.236 1.45305 17.2937C1 15.5902 1 12.0021 1 12.0021C1 12.0021 1 8.43207 1.45305 6.7105C1.70675 5.76816 2.46787 5.00704 3.39208 4.75334C5.11366 4.30029 12 4.30029 12 4.30029C12 4.30029 18.8863 4.30029 20.6078 4.77146ZM15.5337 12.0021L9.80723 15.3002V8.70389L15.5337 12.0021Z" fill="#100D18"/>
</svg>
