<svg width="24" height="24" viewBox="0 0 24 24" fill="none" xmlns="http://www.w3.org/2000/svg">
<path d="M15.7423 15.6444C14.8563 16.6033 13.5486 17.192 12.096 17.192C9.128 17.192 7 14.952 7 12.096C7 9.226 9.128 7 12.096 7C13.5365 7 14.8413 7.588 15.734 8.54586C16.0934 8.93144 15.9367 9.52646 15.4807 9.79085C15.0219 10.0569 14.4393 9.87375 14.0308 9.53551C13.5236 9.11558 12.8476 8.876 12.096 8.876C10.178 8.876 8.918 10.206 8.918 12.096C8.918 13.972 10.178 15.302 12.096 15.302C12.8409 15.302 13.5177 15.0667 14.0234 14.6578C14.4378 14.3227 15.0251 14.137 15.4862 14.4043C15.9401 14.6675 16.0984 15.2589 15.7423 15.6444Z" fill="#100D18"/>
<path fill-rule="evenodd" clip-rule="evenodd" d="M12 2C6.47715 2 2 6.47715 2 12C2 17.5228 6.47715 22 12 22C17.5228 22 22 17.5228 22 12C22 6.47715 17.5228 2 12 2ZM4 12C4 7.58172 7.58172 4 12 4C16.4183 4 20 7.58172 20 12C20 16.4183 16.4183 20 12 20C7.58172 20 4 16.4183 4 12Z" fill="#100D18"/>
</svg>
