<svg width="24" height="24" viewBox="0 0 24 24" fill="none" xmlns="http://www.w3.org/2000/svg">
<path fill-rule="evenodd" clip-rule="evenodd" d="M6 3C5.44772 3 5 3.44772 5 4H3C2.44772 4 2 4.44772 2 5V10C2 11.5942 2.77042 12.8482 3.69359 13.6803C4.40616 14.3226 5.28551 14.7808 6.10056 14.9392C6.89079 16.1277 7.98819 16.8742 9.02108 17.3271C9.7185 17.6329 10.4089 17.8153 11 17.9115V19H8C7.44772 19 7 19.4477 7 20C7 20.5523 7.44772 21 8 21H16C16.5523 21 17 20.5523 17 20C17 19.4477 16.5523 19 16 19H13V17.9115C13.5911 17.8153 14.2815 17.6329 14.9789 17.3271C16.0118 16.8742 17.1092 16.1277 17.8994 14.9392C18.7145 14.7808 19.5938 14.3226 20.3064 13.6803C21.2296 12.8482 22 11.5942 22 10V5C22 4.44772 21.5523 4 21 4H19C19 3.44772 18.5523 3 18 3H6ZM7 5V11C7 12.0732 7.23526 12.8915 7.57864 13.5213C8.10757 14.4912 8.94931 15.1118 9.82424 15.4955C10.7095 15.8837 11.5657 16 12 16C12.4343 16 13.2905 15.8837 14.1758 15.4955C15.0507 15.1118 15.8924 14.4912 16.4214 13.5213C16.7647 12.8915 17 12.0732 17 11V5H7ZM4 6H5V11C5 11.4375 5.03079 11.8522 5.08937 12.2448C5.0704 12.2284 5.05148 12.2117 5.03261 12.1947C4.43026 11.6518 4 10.9058 4 10V6ZM20 6H19V11C19 11.4375 18.9692 11.8522 18.9106 12.2448C18.9296 12.2284 18.9485 12.2117 18.9674 12.1947C19.5697 11.6518 20 10.9058 20 10V6Z" fill="black"/>
</svg>
