<svg width="24" height="24" viewBox="0 0 24 24" fill="none" xmlns="http://www.w3.org/2000/svg">
<path d="M14.2868 18.8372C14.8171 18.9766 15.4015 18.5017 15.592 17.7766C15.7825 17.0516 15.507 16.3508 14.9767 16.2115C14.4464 16.0722 13.8621 16.547 13.6716 17.2721C13.4811 17.9972 13.7565 18.6979 14.2868 18.8372Z" fill="black"/>
<path d="M19.3645 15.6045C19.174 16.3296 18.5897 16.8044 18.0594 16.6651C17.5291 16.5258 17.2536 15.8251 17.4441 15.1C17.6346 14.3749 18.219 13.9001 18.7493 14.0394C19.2796 14.1787 19.555 14.8795 19.3645 15.6045Z" fill="black"/>
<path d="M14.2868 15.3272C14.8171 15.4665 15.4015 14.9917 15.592 14.2666C15.7825 13.5416 15.507 12.8408 14.9767 12.7015C14.4464 12.5622 13.8621 13.037 13.6716 13.7621C13.4811 14.4872 13.7565 15.1879 14.2868 15.3272Z" fill="black"/>
<path d="M19.3645 12.0948C19.174 12.8198 18.5897 13.2947 18.0594 13.1553C17.5291 13.016 17.2536 12.3153 17.4441 11.5902C17.6346 10.8651 18.219 10.3903 18.7493 10.5296C19.2796 10.669 19.555 11.3697 19.3645 12.0948Z" fill="black"/>
<path d="M13.5195 7.12503C13.5195 7.68447 12.8392 8.138 12 8.138C11.1609 8.138 10.4806 7.68447 10.4806 7.12503C10.4806 6.56558 11.1609 6.11206 12 6.11206C12.8392 6.11206 13.5195 6.56558 13.5195 7.12503Z" fill="black"/>
<path d="M5.76311 16.3571C6.3026 16.2592 6.63143 15.5819 6.49756 14.8443C6.3637 14.1066 5.81784 13.588 5.27835 13.6859C4.73886 13.7838 4.41003 14.4612 4.5439 15.1988C4.67776 15.9364 5.22362 16.455 5.76311 16.3571Z" fill="black"/>
<path d="M10.4507 14.0384C10.5846 14.776 10.2557 15.4533 9.71624 15.5512C9.17675 15.6491 8.63089 15.1305 8.49702 14.3929C8.36316 13.6553 8.69198 12.9779 9.23147 12.88C9.77096 12.7821 10.3168 13.3007 10.4507 14.0384Z" fill="black"/>
<path fill-rule="evenodd" clip-rule="evenodd" d="M10.3659 1.69235C10.8619 1.40359 11.4256 1.25146 11.9995 1.25146C12.5735 1.25146 13.1372 1.40361 13.6333 1.6924L20.7582 5.83888C21.1354 6.0587 21.449 6.37376 21.6668 6.7522C21.8846 7.13064 21.9995 7.55953 22 7.99617V16.0018C21.9999 16.4385 21.8854 16.8679 21.6679 17.2466C21.4503 17.6253 21.1374 17.9404 20.7602 18.1606L13.6341 22.3078C13.1554 22.586 12.6135 22.7374 12.0605 22.7476C12.0405 22.7488 12.0203 22.7494 12 22.7494C11.9796 22.7494 11.9593 22.7488 11.9392 22.7476C11.3867 22.7372 10.8457 22.5861 10.3673 22.3081L3.24185 18.1612C2.86435 17.9413 2.55064 17.626 2.33283 17.2472C2.11501 16.8685 2.00026 16.4393 2 16.0024V7.99617C2.00053 7.55953 2.11542 7.13064 2.33322 6.7522C2.55102 6.37376 2.86414 6.05896 3.24141 5.83914L10.3659 1.69235ZM19.752 16.4333L13 20.3627V12.9464L20 8.82875V16.0018C19.9999 16.089 19.977 16.1748 19.9336 16.2505C19.8902 16.326 19.8273 16.3892 19.752 16.4333ZM12.6272 3.4209L18.9717 7.11326L12 11.2142L5.02827 7.11321L11.372 3.42082C11.5626 3.3099 11.7791 3.25146 11.9995 3.25146C12.22 3.25146 12.4366 3.30998 12.6272 3.4209ZM4 16.0014V8.8287L11 12.9464V20.3622L4.24784 16.4326C4.17254 16.3887 4.11004 16.3257 4.06657 16.2501C4.02304 16.1745 4.00009 16.0887 4 16.0014Z" fill="black"/>
</svg>
