<svg width="24" height="25" viewBox="0 0 24 25" fill="none" xmlns="http://www.w3.org/2000/svg">
<path d="M8.46447 14.8713C8.85499 14.4808 9.48816 14.4808 9.87868 14.8713C11.0503 16.0429 12.9497 16.0429 14.1213 14.8713C14.5118 14.4808 15.145 14.4808 15.5355 14.8713C15.9261 15.2618 15.9261 15.895 15.5355 16.2855C13.5829 18.2382 10.4171 18.2382 8.46447 16.2855C8.07394 15.895 8.07394 15.2618 8.46447 14.8713Z" fill="black"/>
<path d="M7.10555 9.30276C7.35254 8.80878 7.95321 8.60856 8.44719 8.85555L10.4472 9.85555C10.786 10.0249 11 10.3712 11 10.75C11 11.1287 10.786 11.475 10.4472 11.6444L8.44719 12.6444C7.95321 12.8914 7.35254 12.6912 7.10555 12.1972C6.85856 11.7032 7.05878 11.1025 7.55276 10.8555L7.76391 10.75L7.55276 10.6444C7.05878 10.3974 6.85856 9.79674 7.10555 9.30276Z" fill="black"/>
<path d="M15.5528 8.85555C16.0468 8.60856 16.6475 8.80878 16.8945 9.30276C17.1414 9.79674 16.9412 10.3974 16.4472 10.6444L16.2361 10.75L16.4472 10.8555C16.9412 11.1025 17.1414 11.7032 16.8945 12.1972C16.6475 12.6912 16.0468 12.8914 15.5528 12.6444L13.5528 11.6444C13.214 11.475 13 11.1287 13 10.75C13 10.3712 13.214 10.0249 13.5528 9.85555L15.5528 8.85555Z" fill="black"/>
<path fill-rule="evenodd" clip-rule="evenodd" d="M2 12.75C2 7.22715 6.47715 2.75 12 2.75C17.5228 2.75 22 7.22715 22 12.75C22 18.2728 17.5228 22.75 12 22.75C6.47715 22.75 2 18.2728 2 12.75ZM12 4.75C7.58172 4.75 4 8.33172 4 12.75C4 17.1683 7.58172 20.75 12 20.75C16.4183 20.75 20 17.1683 20 12.75C20 8.33172 16.4183 4.75 12 4.75Z" fill="black"/>
</svg>
