<svg width="24" height="25" viewBox="0 0 24 25" fill="none" xmlns="http://www.w3.org/2000/svg">
<path d="M10.9971 13.25C11.3876 13.6405 12.0208 13.6405 12.4113 13.25L18.9971 6.66421V10.25C18.9971 10.8023 19.4448 11.25 19.9971 11.25C20.5494 11.25 20.9971 10.8023 20.9971 10.25V4.25C20.9971 3.69772 20.5494 3.25 19.9971 3.25H13.9971C13.4448 3.25 12.9971 3.69772 12.9971 4.25C12.9971 4.80228 13.4448 5.25 13.9971 5.25H17.5829L10.9971 11.8358C10.6066 12.2263 10.6066 12.8595 10.9971 13.25Z" fill="#100D18"/>
<path d="M19 19.25V15.25C19 14.6977 18.5523 14.25 18 14.25C17.4477 14.25 17 14.6977 17 15.25V19.25H5V7.25H9C9.55228 7.25 10 6.80228 10 6.25C10 5.69772 9.55228 5.25 9 5.25H5C3.89543 5.25 3 6.14543 3 7.25V19.25C3 20.3546 3.89543 21.25 5 21.25H17C18.1046 21.25 19 20.3546 19 19.25Z" fill="#100D18"/>
</svg>
