<svg width="24" height="24" viewBox="0 0 24 24" fill="none" xmlns="http://www.w3.org/2000/svg">
<path fill-rule="evenodd" clip-rule="evenodd" d="M12.6905 2.29042C12.3291 1.93158 11.7558 1.90164 11.359 2.22087C9.25022 3.91749 8.42007 6.2218 8.13318 8.16337C7.53797 7.56949 7.28621 7.00557 7.27031 6.96843L7.27078 6.96966C7.09375 6.59375 6.819 6.4204 6.5457 6.36387C6.216 6.29567 5.87411 6.39796 5.63604 6.63603C3.87887 8.3932 3 10.6982 3 13C3 15.3018 3.87888 17.6068 5.63604 19.364C9.15076 22.8787 14.8492 22.8787 18.364 19.364C20.1211 17.6068 21 15.3018 21 13C21 10.6983 20.1211 8.3932 18.364 6.63603C17.5514 5.82345 16.6162 5.20796 15.7265 4.62242L15.5402 4.49971C14.5746 3.86276 13.6213 3.21466 12.6905 2.29042ZM11.982 4.36037C10.3794 6.05118 10 8.32092 10 9.99996C10 10.3465 9.82059 10.6684 9.52578 10.8506C9.23096 11.0328 8.86282 11.0494 8.55283 10.8944C7.46888 10.3524 6.7207 9.64194 6.22996 9.03443C5.40989 10.2244 5 11.6112 5 13C5 14.793 5.68322 16.5827 7.05025 17.9497C9.78392 20.6834 14.2161 20.6834 16.9497 17.9497C18.3168 16.5827 19 14.793 19 13C19 11.207 18.3168 9.41728 16.9497 8.05025C16.2864 7.38693 15.5121 6.87653 14.5787 6.26137L14.4389 6.16917C13.6739 5.6645 12.8323 5.09984 11.982 4.36037Z" fill="#100D18"/>
<path fill-rule="evenodd" clip-rule="evenodd" d="M12.0194 10C11.5888 9.99793 11.2052 10.2717 11.0673 10.6796L10.2825 13L8.99997 13C8.44769 13 7.99999 13.4477 8 14C8.00001 15.0221 8.39073 16.0475 9.17157 16.8284C10.7337 18.3905 13.2663 18.3905 14.8284 16.8284C15.6093 16.0475 16 15.0221 16 14C16 12.9778 15.6093 11.9524 14.8284 11.1715C14.0525 10.3956 13.0351 10.0049 12.0194 10ZM12.6907 12.1222L11.9472 14.3203C11.8099 14.7265 11.4288 14.9999 11 14.9999L10.2671 15C10.3528 15.148 10.459 15.2874 10.5858 15.4142C11.3668 16.1952 12.6332 16.1952 13.4142 15.4142C13.8049 15.0235 14 14.5134 14 14C14 13.4866 13.8049 12.9765 13.4142 12.5857C13.202 12.3736 12.9546 12.2191 12.6907 12.1222Z" fill="#100D18"/>
</svg>
