<svg width="24" height="25" viewBox="0 0 24 25" fill="none" xmlns="http://www.w3.org/2000/svg">
<path d="M13 4.25C13 4.80228 13.4477 5.25 14 5.25H17.5858L13.2929 9.54289C12.9024 9.93342 12.9024 10.5666 13.2929 10.9571C13.6834 11.3476 14.3166 11.3476 14.7071 10.9571L19 6.66421V10.25C19 10.8023 19.4477 11.25 20 11.25C20.5523 11.25 21 10.8023 21 10.25V4.25C21 3.69772 20.5523 3.25 20 3.25H14C13.4477 3.25 13 3.69772 13 4.25Z" fill="#100D18"/>
<path d="M11 20.25C11 19.6977 10.5523 19.25 10 19.25H6.41421L10.7071 14.9571C11.0976 14.5666 11.0976 13.9334 10.7071 13.5429C10.3166 13.1524 9.68342 13.1524 9.29289 13.5429L5 17.8358V14.25C5 13.6977 4.55228 13.25 4 13.25C3.44772 13.25 3 13.6977 3 14.25V20.25C3 20.8023 3.44772 21.25 4 21.25H10C10.5523 21.25 11 20.8023 11 20.25Z" fill="#100D18"/>
</svg>
