<svg width="24" height="25" viewBox="0 0 24 25" fill="none" xmlns="http://www.w3.org/2000/svg">
<path d="M14 11.25H20C20.5523 11.25 21 10.8023 21 10.25C21 9.69772 20.5523 9.25 20 9.25H16.4142L20.7071 4.95711C21.0976 4.56658 21.0976 3.93342 20.7071 3.54289C20.3166 3.15237 19.6834 3.15237 19.2929 3.54289L15 7.83579V4.25C15 3.69772 14.5523 3.25 14 3.25C13.4477 3.25 13 3.69772 13 4.25V10.25C13 10.8023 13.4477 11.25 14 11.25Z" fill="#100D18"/>
<path d="M3 14.25C3 14.8023 3.44772 15.25 4 15.25H7.58579L3.29289 19.5429C2.90237 19.9334 2.90237 20.5666 3.29289 20.9571C3.68342 21.3476 4.31658 21.3476 4.70711 20.9571L9 16.6642V20.25C9 20.8023 9.44772 21.25 10 21.25C10.5523 21.25 11 20.8023 11 20.25V14.25C11 13.6977 10.5523 13.25 10 13.25H4C3.44772 13.25 3 13.6977 3 14.25Z" fill="#100D18"/>
</svg>
