<svg width="24" height="25" viewBox="0 0 24 25" fill="none" xmlns="http://www.w3.org/2000/svg">
<path fill-rule="evenodd" clip-rule="evenodd" d="M11.9999 2.5C12.5522 2.5 12.9999 2.94772 12.9999 3.5V4.5C12.9999 5.05228 12.5522 5.5 11.9999 5.5C11.4477 5.5 10.9999 5.05228 10.9999 4.5V3.5C10.9999 2.94772 11.4477 2.5 11.9999 2.5ZM4.92888 5.42893C5.3194 5.03841 5.95257 5.03841 6.34309 5.42893L7.0502 6.13604C7.44072 6.52656 7.44072 7.15973 7.0502 7.55025C6.65967 7.94078 6.02651 7.94078 5.63599 7.55025L4.92888 6.84315C4.53835 6.45262 4.53835 5.81946 4.92888 5.42893ZM19.071 5.42893C19.4615 5.81946 19.4615 6.45262 19.071 6.84315L18.3639 7.55025C17.9734 7.94078 17.3402 7.94078 16.9497 7.55025C16.5592 7.15973 16.5592 6.52656 16.9497 6.13604L17.6568 5.42893C18.0473 5.03841 18.6805 5.03841 19.071 5.42893ZM9.17152 9.6716C7.60942 11.2337 7.60942 13.7664 9.17152 15.3285L9.71862 15.8755C9.91165 16.0686 10.0848 16.2778 10.2367 16.5H13.7632C13.9151 16.2778 14.0882 16.0686 14.2813 15.8755L14.8284 15.3285C16.3905 13.7664 16.3905 11.2337 14.8284 9.6716C13.2663 8.1095 10.7336 8.1095 9.17152 9.6716ZM15.2448 17.9187C15.3586 17.688 15.5101 17.4751 15.6955 17.2898L16.2426 16.7427C18.5857 14.3995 18.5857 10.6005 16.2426 8.25738C13.8994 5.91424 10.1005 5.91424 7.75731 8.25738C5.41416 10.6005 5.41416 14.3995 7.75731 16.7427L8.3044 17.2898C8.48976 17.4751 8.64131 17.688 8.75509 17.9187C8.76009 17.9295 8.76527 17.9403 8.77064 17.9509C8.92021 18.2661 8.99995 18.6134 8.99995 18.969V19.5C8.99995 21.1569 10.3431 22.5 11.9999 22.5C13.6568 22.5 14.9999 21.1569 14.9999 19.5V18.969C14.9999 18.6134 15.0797 18.2661 15.2292 17.9509C15.2346 17.9403 15.2398 17.9295 15.2448 17.9187ZM13.0251 18.5H10.9748C10.9915 18.655 10.9999 18.8116 10.9999 18.969V19.5C10.9999 20.0523 11.4477 20.5 11.9999 20.5C12.5522 20.5 12.9999 20.0523 12.9999 19.5V18.969C12.9999 18.8116 13.0084 18.655 13.0251 18.5ZM2 12.4999C2 11.9477 2.44772 11.4999 3 11.4999H4C4.55228 11.4999 5 11.9477 5 12.4999C5 13.0522 4.55228 13.4999 4 13.4999H3C2.44772 13.4999 2 13.0522 2 12.4999ZM19 12.4999C19 11.9477 19.4477 11.4999 20 11.4999H21C21.5523 11.4999 22 11.9477 22 12.4999C22 13.0522 21.5523 13.4999 21 13.4999H20C19.4477 13.4999 19 13.0522 19 12.4999Z" fill="#100D18"/>
</svg>
