<svg width="24" height="25" viewBox="0 0 24 25" fill="none" xmlns="http://www.w3.org/2000/svg">
<path fill-rule="evenodd" clip-rule="evenodd" d="M16 5.25C17.1046 5.25 18 6.14543 18 7.25V17.25C18 18.3546 17.1046 19.25 16 19.25H9C7.89543 19.25 7 18.3546 7 17.25V16.25C7 15.6977 6.55229 15.25 6 15.25C5.44771 15.25 5 15.6977 5 16.25V17.25C5 19.4591 6.79086 21.25 9 21.25H16C18.2091 21.25 20 19.4591 20 17.25V7.25C20 5.04086 18.2091 3.25 16 3.25H9C6.79086 3.25 5 5.04086 5 7.25V8.25C5 8.80228 5.44771 9.25 6 9.25C6.55229 9.25 7 8.80228 7 8.25V7.25C7 6.14543 7.89543 5.25 9 5.25H16ZM10.2929 7.54289C9.90237 7.93342 9.90237 8.56658 10.2929 8.95711L12.5858 11.25L3 11.25C2.44772 11.25 2 11.6977 2 12.25C2 12.8023 2.44772 13.25 3 13.25L12.5858 13.25L10.2929 15.5429C9.90237 15.9334 9.90237 16.5666 10.2929 16.9571C10.6834 17.3476 11.3166 17.3476 11.7071 16.9571L15.7071 12.9571C16.0976 12.5666 16.0976 11.9334 15.7071 11.5429L11.7071 7.54289C11.3166 7.15237 10.6834 7.15237 10.2929 7.54289Z" fill="#100D18"/>
</svg>
