<svg width="24" height="24" viewBox="0 0 24 24" fill="none" xmlns="http://www.w3.org/2000/svg">
<path fill-rule="evenodd" clip-rule="evenodd" d="M10.0979 2.61749C10.6966 0.774961 13.3033 0.774967 13.902 2.61749L15.4209 7.2914L20.3354 7.29158C22.2728 7.29166 23.0783 9.77076 21.5109 10.9096L17.5351 13.7984L19.0536 18.4724C19.6522 20.315 17.5434 21.8472 15.976 20.7085L12 17.8199L8.02393 20.7085C6.45652 21.8472 4.34768 20.315 4.94629 18.4724L6.46477 13.7984L2.48897 10.9096C0.921644 9.77075 1.72716 7.29166 3.66452 7.29158L8.57902 7.2914L10.0979 2.61749ZM12 3.2356L10.4811 7.9095C10.2134 8.73349 9.44549 9.29136 8.5791 9.2914L3.6646 9.29158L7.6404 12.1804C8.34132 12.6897 8.63461 13.5924 8.36691 14.4164L6.84842 19.0904L10.8244 16.2019C11.5254 15.6926 12.4745 15.6926 13.1755 16.2019L17.1515 19.0904L15.633 14.4164C15.3653 13.5924 15.6586 12.6897 16.3595 12.1804L20.3353 9.29158L15.4208 9.2914C14.5544 9.29136 13.7866 8.73348 13.5188 7.9095L12 3.2356Z" fill="#100D18"/>
</svg>
