<svg width="24" height="25" viewBox="0 0 24 25" fill="none" xmlns="http://www.w3.org/2000/svg">
<path fill-rule="evenodd" clip-rule="evenodd" d="M20.7071 6.54289C21.0976 6.93342 21.0976 7.56658 20.7071 7.95711L16.7071 11.9571C16.3166 12.3476 15.6834 12.3476 15.2929 11.9571C14.9024 11.5666 14.9024 10.9334 15.2929 10.5429L17.5858 8.25L8 8.25C7.44772 8.25 7 7.80228 7 7.25C7 6.69772 7.44772 6.25 8 6.25L17.5858 6.25L15.2929 3.95711C14.9024 3.56658 14.9024 2.93342 15.2929 2.54289C15.6834 2.15237 16.3166 2.15237 16.7071 2.54289L20.7071 6.54289ZM6.41421 16.25L16 16.25C16.5523 16.25 17 16.6977 17 17.25C17 17.8023 16.5523 18.25 16 18.25H6.41421L8.70711 20.5429C9.09763 20.9334 9.09763 21.5666 8.70711 21.9571C8.31658 22.3476 7.68342 22.3476 7.29289 21.9571L3.29289 17.9571C2.90237 17.5666 2.90237 16.9334 3.29289 16.5429L7.29289 12.5429C7.68342 12.1524 8.31658 12.1524 8.70711 12.5429C9.09763 12.9334 9.09763 13.5666 8.70711 13.9571L6.41421 16.25Z" fill="#100D18"/>
</svg>
