<svg width="24" height="24" viewBox="0 0 24 24" fill="none" xmlns="http://www.w3.org/2000/svg">
<path fill-rule="evenodd" clip-rule="evenodd" d="M8.99998 2C9.55226 2 9.99998 2.44772 9.99998 3V4H12.7322C12.744 3.99979 12.7558 3.99979 12.7676 4H15C15.5523 4 16 4.44772 16 5C16 5.55228 15.5523 6 15 6H13.578C13.003 8.68299 11.862 11.1551 10.2864 13.2858C10.4432 13.4624 10.6037 13.6356 10.7676 13.8055C11.1512 14.2028 11.14 14.8359 10.7427 15.2195C10.3453 15.603 9.71227 15.5919 9.3287 15.1945C9.21768 15.0795 9.10809 14.9631 8.99997 14.8453C7.4284 16.5573 5.54704 17.9799 3.44501 19.0245C2.95043 19.2703 2.35025 19.0686 2.10446 18.574C1.85868 18.0794 2.06037 17.4792 2.55494 17.2334C4.52088 16.2565 6.27063 14.9102 7.71364 13.2859C6.82745 12.0874 6.07865 10.7808 5.49069 9.38919C5.27574 8.88045 5.51391 8.29379 6.02265 8.07884C6.53139 7.8639 7.11805 8.10207 7.333 8.61081C7.78606 9.68312 8.34615 10.6995 8.99999 11.6465C10.1646 9.95956 11.0321 8.0521 11.5269 6H2.99998C2.44769 6 1.99998 5.55228 1.99998 5C1.99998 4.44772 2.44769 4 2.99998 4H7.99998V3C7.99998 2.44772 8.44769 2 8.99998 2ZM16 10C16.3787 10 16.725 10.214 16.8944 10.5528L20.3854 17.5348C20.3919 17.5471 20.3981 17.5596 20.4041 17.5722L21.8944 20.5528C22.1414 21.0468 21.9412 21.6474 21.4472 21.8944C20.9532 22.1414 20.3525 21.9412 20.1056 21.4472L18.8819 19H13.118L11.8944 21.4472C11.6474 21.9412 11.0467 22.1414 10.5528 21.8944C10.0588 21.6474 9.85856 21.0468 10.1055 20.5528L11.5959 17.5722C11.6018 17.5596 11.6081 17.5471 11.6145 17.5348L15.1055 10.5528C15.2749 10.214 15.6212 10 16 10ZM14.118 17H17.8819L16 13.2361L14.118 17Z" fill="#111827"/>
</svg>
