<svg width="24" height="24" viewBox="0 0 24 24" fill="none" xmlns="http://www.w3.org/2000/svg">
<path fill-rule="evenodd" clip-rule="evenodd" d="M10 2C8.89543 2 8 2.89543 8 4V6H5.01032H4.99174H4C3.44772 6 3 6.44772 3 7C3 7.55228 3.44772 8 4 8H4.06888L4.86986 19.2137C4.982 20.7837 6.28832 22 7.86224 22H16.1378C17.7117 22 19.018 20.7837 19.1301 19.2137L19.9311 8H20C20.5523 8 21 7.55228 21 7C21 6.44772 20.5523 6 20 6H19.0083H18.9897H16V4C16 2.89543 15.1046 2 14 2H10ZM6.86478 19.0712L6.07398 8H17.926L17.1352 19.0712C17.0978 19.5946 16.6624 20 16.1378 20H7.86224C7.3376 20 6.90216 19.5946 6.86478 19.0712ZM11 11C11 10.4477 10.5523 10 10 10C9.44772 10 9 10.4477 9 11V17C9 17.5523 9.44772 18 10 18C10.5523 18 11 17.5523 11 17V11ZM15 11C15 10.4477 14.5523 10 14 10C13.4477 10 13 10.4477 13 11V17C13 17.5523 13.4477 18 14 18C14.5523 18 15 17.5523 15 17V11ZM10 6H14V4H10V6Z" fill="#100D18"/>
</svg>
