<svg width="24" height="24" viewBox="0 0 24 24" fill="none" xmlns="http://www.w3.org/2000/svg">
<path fill-rule="evenodd" clip-rule="evenodd" d="M8.70711 3.29289C8.31658 2.90237 7.68342 2.90237 7.29289 3.29289C6.90237 3.68342 6.90237 4.31658 7.29289 4.70711L9.58579 7H7C4.79086 7 3 8.79086 3 11V17C3 19.2091 4.79086 21 7 21H17C19.2091 21 21 19.2091 21 17V11C21 8.79086 19.2091 7 17 7H14.4142L16.7071 4.70711C17.0976 4.31658 17.0976 3.68342 16.7071 3.29289C16.3166 2.90237 15.6834 2.90237 15.2929 3.29289L12 6.58579L8.70711 3.29289ZM7 9C5.89543 9 5 9.89543 5 11V17C5 18.1046 5.89543 19 7 19H17C18.1046 19 19 18.1046 19 17V11C19 9.89543 18.1046 9 17 9H7Z" fill="#100D18"/>
</svg>
