<svg width="24" height="24" viewBox="0 0 24 24" fill="none" xmlns="http://www.w3.org/2000/svg">
<path fill-rule="evenodd" clip-rule="evenodd" d="M12 1C12.5527 1 13 1.44727 13 2V3.05469C17.1719 3.51562 20.4844 6.82812 20.9453 11H22C22.5527 11 23 11.4473 23 12C23 12.5527 22.5527 13 22 13H20.9453C20.4844 17.1719 17.1719 20.4844 13 20.9453V22C13 22.5527 12.5527 23 12 23C11.4473 23 11 22.5527 11 22V20.9453C6.82812 20.4844 3.51562 17.1719 3.05469 13H2C1.44727 13 1 12.5527 1 12C1 11.4473 1.44727 11 2 11H3.05469C3.51562 6.82812 6.82812 3.51562 11 3.05469V2C11 1.44727 11.4473 1 12 1ZM12 5C12.5527 5 13 5.44727 13 6V11H18C18.5527 11 19 11.4473 19 12C19 12.5527 18.5527 13 18 13H13V18C13 18.5527 12.5527 19 12 19C11.7695 19 11.5586 18.9219 11.3887 18.791C11.1523 18.6084 11 18.3223 11 18V13H6C5.44727 13 5 12.5527 5 12C5 11.4473 5.44727 11 6 11H11V6C11 5.83789 11.0391 5.68457 11.1074 5.54883C11.2715 5.22266 11.6094 5 12 5Z" fill="#100D18"/>
</svg>
