<svg width="24" height="24" viewBox="0 0 24 24" fill="none" xmlns="http://www.w3.org/2000/svg">
<path d="M9.77446 4.62631C10.3073 4.32185 10.4924 3.64313 10.1879 3.11033C9.88346 2.57753 9.20473 2.39242 8.67193 2.69688L4.78304 4.9191C4.25025 5.22356 4.06514 5.90229 4.3696 6.43508C4.67405 6.96788 5.35278 7.15299 5.88558 6.84853L9.77446 4.62631Z" fill="#100D18"/>
<path d="M14.2613 6.36133C15.1493 5.84861 16.1575 5.58087 17.1828 5.58548L19.6918 5.59677C21.4657 5.60475 22.5726 7.52223 21.6923 9.06235L20.4472 11.2408C19.9386 12.1306 19.2029 12.8695 18.3153 13.382L9.64209 18.39C9.08816 18.7098 8.37983 18.52 8.06003 17.9661L5.1647 12.951C4.84492 12.3971 5.03469 11.6888 5.58857 11.369L14.2613 6.36133Z" fill="#100D18"/>
<path d="M2.58023 13.1068C2.02631 13.4266 1.83652 14.1349 2.15633 14.6888L5.05161 19.7036C5.37142 20.2575 6.07971 20.4473 6.63362 20.1275C7.18754 19.8077 7.37733 19.0994 7.05752 18.5455L4.16224 13.5307C3.84244 12.9768 3.13414 12.787 2.58023 13.1068Z" fill="#100D18"/>
<path d="M20.1879 17.5548C20.4924 18.0876 20.3073 18.7663 19.7745 19.0708L15.8856 21.293C15.3528 21.5974 14.6741 21.4123 14.3696 20.8795C14.0651 20.3467 14.2502 19.668 14.783 19.3635L18.6719 17.1413C19.2047 16.8369 19.8835 17.022 20.1879 17.5548Z" fill="#100D18"/>
</svg>
