<svg width="24" height="24" viewBox="0 0 24 24" fill="none" xmlns="http://www.w3.org/2000/svg">
<path fill-rule="evenodd" clip-rule="evenodd" d="M12.8742 2.51437C12.6979 2.1969 12.3632 2 12.0001 2C11.6369 2 11.3023 2.1969 11.1259 2.51437L8.42489 7.37637C8.21299 7.75773 7.92047 8.08828 7.56772 8.34498C7.21494 8.60169 6.81043 8.77837 6.38236 8.8627C5.9543 8.94702 5.51299 8.93697 5.08921 8.83324C4.66544 8.7295 4.26938 8.53458 3.92867 8.26207L2.62468 7.21907C2.29646 6.95655 1.83913 6.92727 1.48012 7.14579C1.12111 7.36431 0.937049 7.78399 1.01947 8.19612L2.77349 16.9662C2.87994 17.4982 3.10644 17.9989 3.43574 18.4301C3.76503 18.8613 4.1886 19.2117 4.67381 19.4544C6.94852 20.5919 9.45682 21.184 12.0001 21.184C14.5433 21.184 17.0518 20.5918 19.3265 19.4543C19.8117 19.2116 20.2351 18.8613 20.5644 18.4301C20.8937 17.9989 21.1202 17.4981 21.2266 16.9661L22.9806 8.19612C23.063 7.78408 22.8791 7.36447 22.5202 7.14591C22.1613 6.92736 21.7041 6.95647 21.3758 7.21878L20.0713 8.26114C19.7307 8.53369 19.3347 8.72865 18.9109 8.83244C18.4872 8.93623 18.0459 8.94635 17.6178 8.8621C17.1898 8.77784 16.7852 8.60124 16.4324 8.3446C16.0797 8.08801 15.787 7.75737 15.5751 7.37614L12.8742 2.51437ZM8.45699 15.1106C7.96569 14.8584 7.36291 15.0521 7.11063 15.5434C6.85836 16.0347 7.05213 16.6375 7.54343 16.8898C10.4262 18.37 13.5743 18.37 16.457 16.8898C16.9483 16.6375 17.1421 16.0347 16.8898 15.5434C16.6375 15.0521 16.0347 14.8584 15.5434 15.1106C13.2342 16.2964 10.7663 16.2964 8.45699 15.1106Z" fill="#100D18"/>
</svg>
