<svg width="24" height="24" viewBox="0 0 24 24" fill="none" xmlns="http://www.w3.org/2000/svg">
<path d="M2.89558 7.24936C2.67217 4.50457 3.43584 2.52415 5.0275 1.72127C6.22295 1.1181 7.74642 1.38472 8.57458 2.34186C10.0439 4.04026 10.3796 7.29658 9.44058 10.7448L9.33692 11.1253C9.22762 11.5266 8.87719 11.8314 8.44035 11.9052L5.77029 12.3563C5.37065 12.4238 4.96071 12.2882 4.71459 11.9869C4.52304 11.7524 4.31738 11.4823 4.22634 11.3011C3.21158 9.28095 3.01125 8.67119 2.89558 7.24936Z" fill="#100D18"/>
<path d="M5.49417 15.3667C5.35213 14.8183 5.76558 14.2964 6.36066 14.1948L6.70895 14.1354C7.21009 14.0498 7.97714 13.9499 8.59374 13.8741C9.16194 13.8043 9.70066 14.145 9.80896 14.6698C10.1241 16.197 10.1505 17.9635 7.96922 17.9432C7.3216 17.9372 7.10632 17.8667 6.6703 17.5181C6.05168 17.0235 5.69712 16.1503 5.49417 15.3667Z" fill="#100D18"/>
<path d="M16.4686 6.38044C14.9586 7.01156 13.9759 9.02428 13.7973 11.8515C13.727 12.9657 13.9133 14.6008 14.0348 15.5021C14.089 15.9045 14.3939 16.2352 14.8092 16.3555L17.3783 17.0992C17.8523 17.2365 18.3665 17.0709 18.6402 16.6847C19.1893 15.9102 20.0658 14.6312 20.3647 13.9534C21.07 12.3541 21.2115 9.80724 20.6723 8.41942C20.3743 7.65292 19.7108 6.87274 19.0513 6.51348C18.3603 6.13721 17.1942 6.07712 16.4686 6.38044Z" fill="#100D18"/>
<path d="M14.4412 18.4064C13.9078 18.298 13.3825 18.5855 13.2192 19.0713C13.0541 19.5622 12.8783 20.1472 12.8586 20.4627C12.8034 21.3501 12.9778 21.7636 13.5908 22.1975C14.4861 22.8313 15.8162 22.6281 16.5703 21.7423C16.8618 21.3999 17.0929 20.8225 17.2573 20.2993C17.4476 19.6938 16.975 19.0193 16.3215 18.8558C16.0689 18.7926 15.7919 18.7226 15.5046 18.6491C15.1201 18.5507 14.753 18.4697 14.4412 18.4064Z" fill="#100D18"/>
</svg>
