<svg width="24" height="24" viewBox="0 0 24 24" fill="none" xmlns="http://www.w3.org/2000/svg">
<path fill-rule="evenodd" clip-rule="evenodd" d="M22.8553 4.94428C23.1537 5.48124 22.9765 6.15787 22.4534 6.4798L8.66462 14.9652C8.55382 15.0334 8.52086 15.18 8.60415 15.2799C9.81937 16.7381 13.5204 17.747 17.074 17.9305C17.7073 17.9632 18.2217 18.4746 18.2217 19.1088V21.4052C18.2217 22.0394 17.7097 22.5553 17.076 22.5306C13.9417 22.4079 8.41305 21.7122 5.05834 18.5894C4.67832 18.2357 4.12034 18.1219 3.65597 18.3541L3.52256 18.4208C3.05131 18.6564 2.46962 18.5463 2.19304 18.0978C1.13143 16.3766 1.0132 14.2244 1.00003 12.3399C0.997043 11.9128 1.23546 11.5212 1.61381 11.323L12.5863 5.57546C12.8836 5.41977 13.234 5.40188 13.5456 5.5265L15.4465 6.28687C15.751 6.40867 16.0931 6.39444 16.3864 6.24777L18.7352 5.0734C19.1242 4.8789 19.3699 4.48131 19.3699 4.0464V1.81496C19.3699 1.50633 19.5443 1.22419 19.8203 1.08617C20.2105 0.89107 20.6851 1.0379 20.897 1.41925L22.8553 4.94428ZM13.6456 9.75957C14.1894 9.4333 14.3657 8.728 14.0394 8.18422C13.7132 7.64045 13.0079 7.46412 12.4641 7.79039L9.59355 9.51272C9.04978 9.83898 8.87345 10.5443 9.19972 11.0881C9.52598 11.6318 10.2313 11.8082 10.7751 11.4819L13.6456 9.75957Z" fill="#100D18"/>
</svg>
