<svg width="24" height="24" viewBox="0 0 24 24" fill="none" xmlns="http://www.w3.org/2000/svg">
<path fill-rule="evenodd" clip-rule="evenodd" d="M16.5645 8.14062C16.0645 5.77344 14.002 4 11.5312 4C9.66211 4 8.02539 5.0166 7.12305 6.53711C6.65234 7.33008 6.38281 8.25977 6.38281 9.25391C5.68945 9.25391 1 9.25391 1 14.1494C1 17.5 5.08594 20.251 8.2207 18.375C9.26953 19.3828 10.6816 20 12.2344 20C13.4766 20 14.6289 19.6045 15.5762 18.9307C19.1172 20.2793 23 17.4668 23 13.6719C23 10.2959 19.9062 7.55566 16.5645 8.14062ZM8.8944 13.4472C9.45057 12.3348 10.5875 11.7253 11.833 11.6215C13.1185 11.5144 14.2235 11.9647 14.7 12.5999C15.0313 13.0418 15.6581 13.1313 16.1 12.7999C16.5418 12.4686 16.6313 11.8418 16.3 11.3999C15.2764 10.0352 13.3814 9.48553 11.6669 9.62842C9.91245 9.77464 8.04938 10.6651 7.10555 12.5527C6.85856 13.0467 7.05877 13.6474 7.55275 13.8944C8.04673 14.1414 8.6474 13.9411 8.8944 13.4472Z" fill="#100D18"/>
</svg>
