<svg width="20" height="20" viewBox="0 0 20 20" fill="none" xmlns="http://www.w3.org/2000/svg">
<path fill-rule="evenodd" clip-rule="evenodd" d="M6 2C6.55228 2 7 2.44772 7 3V10.1707C8.16519 10.5825 9 11.6938 9 13C9 14.3062 8.16519 15.4175 7 15.8293V17C7 17.5523 6.55228 18 6 18C5.44772 18 5 17.5523 5 17V15.8293C3.83481 15.4175 3 14.3062 3 13C3 11.6938 3.83481 10.5825 5 10.1707V3C5 2.44772 5.44772 2 6 2ZM14 2C14.5523 2 15 2.44772 15 3V4.17071C16.1652 4.58254 17 5.69378 17 7C17 8.30622 16.1652 9.41746 15 9.82929V17C15 17.5523 14.5523 18 14 18C13.4477 18 13 17.5523 13 17V9.82929C11.8348 9.41746 11 8.30622 11 7C11 5.69378 11.8348 4.58254 13 4.17071V3C13 2.44772 13.4477 2 14 2ZM14 6C13.4477 6 13 6.44772 13 7C13 7.55228 13.4477 8 14 8C14.5523 8 15 7.55228 15 7C15 6.44772 14.5523 6 14 6ZM6 12C5.44772 12 5 12.4477 5 13C5 13.5523 5.44772 14 6 14C6.55228 14 7 13.5523 7 13C7 12.4477 6.55228 12 6 12Z" fill="#100D18"/>
</svg>
