<svg width="20" height="20" viewBox="0 0 20 20" fill="none" xmlns="http://www.w3.org/2000/svg">
<path fill-rule="evenodd" clip-rule="evenodd" d="M7.67617 3.29025C6.73184 4.29753 6.78288 5.87962 7.79016 6.82394L10.4568 9.32394C11.4185 10.2255 12.9149 10.2255 13.8765 9.32394L14.6632 8.58643C14.7909 8.46668 15 8.55725 15 8.73234L15 10.2041C15.5848 9.68393 16 8.92898 16 8.00009V7.41983C16 7.36455 16.0229 7.31174 16.0632 7.27393L17.6632 5.77393C17.7909 5.65418 18 5.74475 18 5.91983V8.00009C18 10.6687 16.0347 12.3975 14.0798 12.8693C13.2859 13.9059 12.0973 14.5969 11 14.8694V16.0001H13C13.5523 16.0001 14 16.4478 14 17.0001C14 17.5524 13.5523 18.0001 13 18.0001H7C6.44772 18.0001 6 17.5524 6 17.0001C6 16.4478 6.44772 16.0001 7 16.0001H9V14.8694C7.90271 14.5969 6.71409 13.9059 5.92021 12.8693C3.96531 12.3975 2 10.6687 2 8.00009V4.00009C2 3.44781 2.44772 3.00009 3 3.00009L5 3.00009C5 2.44781 5.44772 2.00009 6 2.00009L13.9751 2C14.159 2 14.2441 2.22734 14.1067 2.3495L12.3031 3.95202C12.2258 4.0207 12.1089 4.01914 12.0335 3.94842L11.2099 3.17626C10.2026 2.23193 8.62049 2.28297 7.67617 3.29025ZM5 5.00009H4V8.00009C4 8.92899 4.41524 9.68393 5 10.2041L5 5.00009Z" fill="black"/>
<path d="M18.1839 3.22954C18.5869 2.85181 18.6073 2.21897 18.2295 1.81606C17.8518 1.41315 17.219 1.39274 16.8161 1.77047L12.1667 6.12927L10.1839 4.27047C9.78103 3.89274 9.1482 3.91315 8.77047 4.31606C8.39274 4.71897 8.41315 5.35181 8.81606 5.72954L11.4827 8.22954C11.8674 8.59016 12.466 8.59016 12.8506 8.22954L18.1839 3.22954Z" fill="#100D18"/>
</svg>
