<svg width="20" height="20" viewBox="0 0 20 20" fill="none" xmlns="http://www.w3.org/2000/svg">
<path fill-rule="evenodd" clip-rule="evenodd" d="M5 3C5 2.44772 5.44772 2 6 2H14C14.5523 2 15 2.44772 15 3L17 3C17.5523 3 18 3.44772 18 4V8C18 10.6686 16.0347 12.3975 14.0798 12.8692C13.2859 13.9058 12.0973 14.5968 11 14.8693V16H13C13.5523 16 14 16.4477 14 17C14 17.5523 13.5523 18 13 18H7C6.44772 18 6 17.5523 6 17C6 16.4477 6.44772 16 7 16H9V14.8693C7.90271 14.5968 6.71409 13.9058 5.92021 12.8692C3.96531 12.3975 2 10.6686 2 8V4C2 3.44772 2.44772 3 3 3L5 3ZM15 10.2041C15.5848 9.68384 16 8.92889 16 8V5H15L15 10.2041ZM5 5H4V8C4 8.92889 4.41524 9.68384 5 10.2041L5 5Z" fill="black"/>
</svg>
