<svg width="20" height="20" viewBox="0 0 20 20" fill="none" xmlns="http://www.w3.org/2000/svg">
<path fill-rule="evenodd" clip-rule="evenodd" d="M4.47648 2.00003L4.49994 2.00006L8.40814 2.00005C8.53446 1.99998 8.69478 1.99988 8.83815 2.0147C9.01469 2.03295 9.24561 2.07953 9.47952 2.22409C9.71343 2.36865 9.85836 2.55437 9.95363 2.70411C10.031 2.82571 10.1026 2.96915 10.159 3.08217L10.618 4.00006L15.4999 4.00006L15.5234 4.00004C15.6168 3.99987 15.7696 3.99959 15.9075 4.01813C16.0865 4.0422 16.3804 4.1128 16.6338 4.36618C16.8872 4.61956 16.9578 4.91353 16.9819 5.0925C17.0004 5.23043 17.0001 5.38319 17 5.4766L16.9999 5.50006V12.5001L17 12.5235C17.0001 12.6169 17.0004 12.7697 16.9819 12.9076C16.9578 13.0866 16.8872 13.3806 16.6338 13.6339C16.3804 13.8873 16.0865 13.9579 15.9075 13.982C15.7696 14.0005 15.6168 14.0003 15.5234 14.0001L15.4999 14.0001L10.5917 14.0001H10.5917C10.4654 14.0002 10.3051 14.0002 10.1617 13.9854C9.9852 13.9672 9.75427 13.9206 9.52036 13.776C9.28646 13.6315 9.14153 13.4458 9.04625 13.296C8.96888 13.1744 8.89726 13.031 8.84084 12.9179L8.38191 12.0001H4.99994V17.0001C4.99994 17.5523 4.55223 18.0001 3.99994 18.0001C3.44766 18.0001 2.99994 17.5523 2.99994 17.0001V3.50006L2.99991 3.4766C2.99974 3.38319 2.99947 3.23043 3.01801 3.0925C3.04207 2.91353 3.11268 2.61956 3.36606 2.36618C3.61944 2.1128 3.91341 2.0422 4.09238 2.01813C4.23031 1.99959 4.38307 1.99987 4.47648 2.00003Z" fill="#100D18"/>
</svg>
