<svg width="20" height="20" viewBox="0 0 20 20" fill="none" xmlns="http://www.w3.org/2000/svg">
<path fill-rule="evenodd" clip-rule="evenodd" d="M5.35555 3.03779C4.08144 3.26881 2.96343 4.02183 2.49339 4.9656C2.20835 5.5379 2.00119 6.48515 2 7.22144C1.99947 7.55354 2.06163 8.04733 2.16094 8.50052C2.24993 8.90655 2.3987 9.58564 2.49153 10.0097C2.68506 10.8935 2.69974 11.4246 2.55904 12.4528C2.50476 12.8497 2.44227 13.3377 2.42019 13.5374L2.37999 13.9005L3.03259 14.5607C4.22789 15.77 5.80543 16.7888 6.74862 16.9605C7.56671 17.1095 8.61318 16.8266 9.22935 16.2899C9.5134 16.0424 9.56279 15.855 9.4371 15.5016C9.38281 15.3489 9.33838 15.1658 9.33838 15.0947C9.33838 15.0236 9.52808 14.7691 9.75996 14.5291C10.2713 13.9997 10.3364 13.8775 10.5911 12.9694C10.7012 12.5771 10.925 11.9461 11.0884 11.5673C11.4267 10.783 11.4678 10.3779 11.282 9.65838C11.1666 9.21189 11.19 8.81727 11.3598 8.33975C11.4746 8.01716 11.5109 7.48604 11.4364 7.2217L11.3856 7.04132L12.891 7.03902L14.3965 7.03666L15.0279 6.76025C15.3751 6.6082 15.6726 6.45989 15.6891 6.43077C15.7055 6.40158 15.4213 6.26154 15.0577 6.11946L14.3965 5.86115L12.5634 5.86089L10.7303 5.86063L10.6211 5.64745C10.4178 5.25067 9.85636 4.54986 9.44754 4.1828C8.96401 3.7485 8.18744 3.3533 7.45398 3.16826C6.85521 3.01713 5.82308 2.95298 5.35555 3.03779ZM5.37374 4.62031C5.455 4.81493 5.47404 4.82372 5.72946 4.78521C6.28202 4.70191 6.24803 4.6882 6.32486 5.0247C6.39052 5.31219 6.43231 5.36047 6.85891 5.64089C7.11347 5.80828 7.3347 5.9562 7.3505 5.96971C7.36631 5.98316 7.26356 6.11172 7.12219 6.25537L6.86512 6.51657L7.11525 6.77068L7.36531 7.02479L7.11214 7.06933C6.66346 7.1483 6.62749 7.17054 6.62749 7.36837C6.62749 7.71241 6.58266 7.75426 6.292 7.68105C6.03407 7.61612 6.027 7.61933 5.76027 7.91995L5.48991 8.22463L5.16592 7.99374C4.98773 7.86675 4.81972 7.76351 4.79255 7.76429C4.76531 7.76508 4.66871 7.82346 4.57779 7.89404C4.48688 7.96462 4.39259 8.023 4.36833 8.02378C4.344 8.02457 4.25976 7.83336 4.18108 7.59887C4.05889 7.23456 4.01532 7.1725 3.88196 7.1725C3.74608 7.1725 3.7232 7.13702 3.70548 6.89885C3.68538 6.62788 3.68135 6.62388 3.29687 6.49708L2.90855 6.36904L3.22156 6.1758C3.56121 5.96604 3.54587 6.02914 3.40603 5.41787C3.37363 5.27651 3.39036 5.27028 3.80222 5.27028H4.23219L4.27682 4.97511C4.30135 4.81276 4.3354 4.67994 4.35253 4.67994C4.36965 4.67994 4.48794 4.72316 4.61528 4.77596L4.84697 4.87193L5.02641 4.61939C5.12513 4.48046 5.22437 4.37761 5.24692 4.3908C5.26947 4.40398 5.32653 4.50729 5.37374 4.62031ZM15.5594 4.81184C15.4471 4.99288 15.3552 5.16946 15.3552 5.20416C15.3552 5.27277 15.6751 5.50084 15.7134 5.45952C15.7743 5.39373 16.1487 4.78082 16.1487 4.74684C16.1487 4.72559 16.062 4.65744 15.9561 4.59538L15.7636 4.48256L15.5594 4.81184ZM16.3616 5.22286C16.1354 5.44929 15.9503 5.66607 15.9503 5.70464C15.9503 5.78893 16.1663 5.99181 16.2561 5.99181C16.2913 5.99181 16.5079 5.78368 16.7375 5.52931C17.1416 5.0815 17.1512 5.06274 17.0382 4.93897C16.9741 4.86865 16.8881 4.81112 16.8473 4.81112C16.8064 4.81112 16.5879 4.99643 16.3616 5.22286ZM16.347 6.48377V6.71335H17.1735H18V6.48377V6.25419H17.1735H16.347V6.48377ZM16.192 7.16129C16.1318 7.22728 16.0825 7.30927 16.0825 7.34357C16.0825 7.37781 16.276 7.59611 16.5125 7.82864L16.9425 8.25139L17.1224 8.07291L17.3023 7.89443L16.8762 7.46787C16.6418 7.23324 16.4166 7.04132 16.3757 7.04132C16.3349 7.04132 16.2521 7.0953 16.192 7.16129ZM15.5371 7.57132C15.3893 7.65665 15.3915 7.70257 15.5617 8.09508C15.7081 8.43263 15.8255 8.49101 16.042 8.33391C16.1528 8.25356 16.1501 8.22903 15.9922 7.87475C15.8243 7.49805 15.7498 7.44839 15.5371 7.57132ZM8.59236 7.83612C8.83852 7.91326 9.14002 8.23867 9.14002 8.42705C9.14002 8.82134 8.72565 9.1356 8.13051 9.1926C7.30733 9.27151 6.56818 8.53745 7.04074 8.11043C7.46529 7.72684 7.96303 7.63881 8.59236 7.83612ZM11.2535 8.2712C11.2522 8.33437 11.2086 8.45979 11.1567 8.54998C11.1047 8.64017 11.0611 8.87211 11.0598 9.06541C11.0575 9.41096 11.0546 9.41621 10.8853 9.37403C10.4368 9.26233 10.2465 8.97017 10.4069 8.63925C10.5813 8.2794 11.2593 7.98462 11.2535 8.2712ZM10.4616 11.9273C10.6968 12.1385 10.5759 12.6639 10.2301 12.9338C9.98463 13.1254 9.38618 13.1297 8.98563 12.943C8.72149 12.8198 8.15332 12.3202 8.21865 12.2685C8.73729 11.8585 9.06035 11.7616 9.81695 11.7892C10.2 11.8032 10.362 11.8379 10.4616 11.9273Z" fill="#100D18"/>
</svg>
