<svg width="20" height="20" viewBox="0 0 20 20" fill="none" xmlns="http://www.w3.org/2000/svg">
<path d="M13.7939 2.31122C12.7842 1.49336 11.4835 1.00063 10.0642 1.00063V1C8.63383 1 7.3234 1.50026 6.31043 2.33006L7.14388 3.13788C8.80752 1.83293 11.2826 1.82101 12.9598 3.11905L13.7939 2.31122Z" fill="#100D18"/>
<path d="M7.94167 14.7255L7.94167 14.7242L7.94232 14.7249L7.94167 14.7255Z" fill="#100D18"/>
<path d="M7.94102 15.8817L7.94167 14.7255L6.84381 15.7806L6.84057 16.2872C6.83668 16.4843 6.77835 16.6399 6.68827 16.7516C6.3908 17.0454 5.95593 17.0523 5.65262 16.7648C5.55541 16.6518 5.49255 16.4918 5.48801 16.2859L5.4932 15.9739C5.51134 14.9044 5.20933 14.0658 4.00907 13.875C3.81854 13.8449 3.62346 13.8442 3.43227 13.875V14.8786H3.69345C3.78613 14.8768 3.87946 14.8918 3.96565 14.9232C4.0674 14.9602 4.16461 15.0199 4.25016 15.1046C4.34025 15.2163 4.39857 15.3714 4.40246 15.5691V15.6902L4.40376 15.8779C4.40765 16.4221 4.46338 16.972 4.81335 17.3938L4.81141 17.3956L4.85353 17.4402C4.91769 17.5118 4.98963 17.5789 5.07064 17.6423C5.36941 17.8752 5.73364 17.9957 6.10434 18.0032C6.51523 18.0214 6.92612 17.9016 7.25729 17.6436C7.8127 17.2111 7.94102 16.5659 7.94102 15.8817Z" fill="#100D18"/>
<path d="M9.75049 15.2465L9.74854 13.0697L8.59754 14.1807L8.59883 15.2408C8.59878 15.2628 8.59872 15.2845 8.59867 15.3061C8.59513 16.7369 8.59406 17.1693 7.63059 18.2725L8.51458 19C9.70771 17.6342 9.7453 17.031 9.75049 15.2465Z" fill="#100D18"/>
<path d="M12.1614 14.7255V14.7242L12.1607 14.7249L12.1614 14.7255Z" fill="#100D18"/>
<path d="M12.1614 14.7255L12.162 15.8817C12.162 16.5659 12.2903 17.2111 12.8458 17.6436C13.1769 17.9016 13.5878 18.0214 13.9987 18.0032C14.3694 17.9957 14.7336 17.8752 15.0324 17.6423C15.1134 17.5789 15.1854 17.5118 15.2495 17.4402L15.2916 17.3956L15.2897 17.3938C15.6397 16.972 15.6954 16.4221 15.6993 15.8779L15.7006 15.6902V15.5691C15.7045 15.3714 15.7628 15.2163 15.8529 15.1046C15.9391 15.0199 16.0363 14.9602 16.1374 14.9232C16.2236 14.8918 16.3169 14.8768 16.4096 14.8786H16.6708V13.875C16.4796 13.8442 16.2845 13.8449 16.094 13.875C14.8937 14.0658 14.5917 14.9044 14.6099 15.9739L14.615 16.2859C14.6105 16.4918 14.5476 16.6518 14.4504 16.7648C14.1471 17.0523 13.7122 17.0454 13.4148 16.7516C13.3247 16.6399 13.2664 16.4843 13.2625 16.2872L13.2592 15.7806L12.1614 14.7255Z" fill="#100D18"/>
<path d="M10.3526 15.2465L10.3545 13.0697L11.5055 14.1807L11.5042 15.2408C11.5043 15.2628 11.5043 15.2846 11.5044 15.3061C11.5079 16.7369 11.509 17.1693 12.4725 18.2725L11.5885 19C10.3953 17.6342 10.3577 17.031 10.3526 15.2465Z" fill="#100D18"/>
<path fill-rule="evenodd" clip-rule="evenodd" d="M14.4504 2.38655L14.1769 2.65143H14.1763L10.0441 6.65415L5.54958 2.27231L3 4.7416C3.41413 5.14332 3.84511 5.56261 4.28451 5.99257C4.11277 7.46009 4.57615 8.97217 5.46209 10.08L3.34802 12.1275L6.56902 15.2471L10.0324 11.8928L13.4958 15.2471L16.7168 12.1275L14.6377 10.1139C15.5444 8.99791 16.0194 7.46511 15.8412 5.97814L17 4.85584L14.4504 2.38655ZM9.46338 10.9908L9.36423 11.0755C6.5081 10.6625 5.74141 9.95763 5.43552 7.09729C6.23771 7.87834 7.03508 8.64713 7.83406 9.41748C8.37575 9.93977 8.91819 10.4628 9.46338 10.9908ZM11.5314 10.9563L10.8477 11.068C10.8318 11.0702 10.8161 11.0725 10.8004 11.0749C10.7847 11.0773 10.769 11.0796 10.7531 11.0818L10.6539 10.9971L14.6818 7.10294C14.6818 7.36906 14.6268 7.65085 14.5745 7.91844C14.5649 7.96769 14.5554 8.01645 14.5463 8.06455C14.4653 8.49514 14.3513 8.9251 14.1594 9.32367L14.0927 9.45486L13.9151 9.74296L13.7984 9.89486C13.6999 10.0078 13.6131 10.0901 13.5016 10.1892L13.3564 10.2985C12.825 10.6663 12.1646 10.8358 11.5314 10.9563Z" fill="#100D18"/>
</svg>
