<svg width="20" height="20" viewBox="0 0 20 20" fill="none" xmlns="http://www.w3.org/2000/svg">
<path d="M5.04951 4.30614C5.60501 4.30614 6.13873 4.40961 6.65066 4.61656C7.15169 4.8344 7.59282 5.13938 7.97405 5.5315C8.34438 5.92362 8.64391 6.39198 8.87265 6.93658C9.09049 7.49208 9.19941 8.10749 9.19941 8.7828C9.19941 9.66506 9.0796 10.4602 8.83997 11.1682C8.60035 11.8871 8.27358 12.5297 7.85968 13.0961C7.43489 13.6734 6.93385 14.1744 6.35657 14.5992C5.77929 15.024 5.15299 15.3889 4.47768 15.6938L3.38302 14.6645C4.11279 14.2397 4.67918 13.7768 5.08219 13.2758C5.47431 12.7748 5.74661 12.1811 5.8991 11.4949C5.74661 11.5385 5.58323 11.5766 5.40895 11.6093C5.23468 11.642 5.02228 11.6583 4.77177 11.6583C4.20538 11.6583 3.69345 11.5766 3.23598 11.4132C2.76762 11.2499 2.37005 11.0102 2.04329 10.6944C1.70563 10.3894 1.44967 10.0082 1.27539 9.55069C1.09023 9.09322 0.997646 8.5704 0.997646 7.98223C0.997646 7.4703 1.09023 6.99104 1.27539 6.54447C1.44967 6.09789 1.71108 5.70577 2.05963 5.36812C2.39728 5.04135 2.82208 4.77994 3.33401 4.58389C3.83504 4.39872 4.40688 4.30614 5.04951 4.30614ZM14.8524 4.30614C15.4079 4.30614 15.9416 4.40961 16.4536 4.61656C16.9546 4.8344 17.3957 5.13938 17.777 5.5315C18.1473 5.92362 18.4468 6.39198 18.6756 6.93658C18.8934 7.49208 19.0023 8.10749 19.0023 8.7828C19.0023 9.66506 18.8825 10.4602 18.6429 11.1682C18.4033 11.8871 18.0765 12.5297 17.6626 13.0961C17.2378 13.6734 16.7368 14.1744 16.1595 14.5992C15.5822 15.024 14.9559 15.3889 14.2806 15.6938L13.1859 14.6645C13.9157 14.2397 14.4821 13.7768 14.8851 13.2758C15.2772 12.7748 15.5495 12.1811 15.702 11.4949C15.5495 11.5385 15.3861 11.5766 15.2119 11.6093C15.0376 11.642 14.8252 11.6583 14.5747 11.6583C14.0083 11.6583 13.4964 11.5766 13.0389 11.4132C12.5705 11.2499 12.173 11.0102 11.8462 10.6944C11.5085 10.3894 11.2526 10.0082 11.0783 9.55069C10.8931 9.09322 10.8006 8.5704 10.8006 7.98223C10.8006 7.4703 10.8931 6.99104 11.0783 6.54447C11.2526 6.09789 11.514 5.70577 11.8625 5.36812C12.2002 5.04135 12.625 4.77994 13.1369 4.58389C13.638 4.39872 14.2098 4.30614 14.8524 4.30614Z" fill="#100D18"/>
</svg>
