<svg width="20" height="20" viewBox="0 0 20 20" fill="none" xmlns="http://www.w3.org/2000/svg">
<path fill-rule="evenodd" clip-rule="evenodd" d="M19 10C19 14.9706 14.9706 19 10 19C5.02944 19 1 14.9706 1 10C1 5.02944 5.02944 1 10 1C14.9706 1 19 5.02944 19 10ZM12.25 6.625C12.25 7.86764 11.2426 8.875 10 8.875C8.75736 8.875 7.75 7.86764 7.75 6.625C7.75 5.38236 8.75736 4.375 10 4.375C11.2426 4.375 12.25 5.38236 12.25 6.625ZM9.99992 11.125C7.73019 11.125 5.77444 12.4693 4.88545 14.4052C6.12328 15.841 7.95548 16.75 9.99998 16.75C12.0444 16.75 13.8766 15.8411 15.1144 14.4053C14.2255 12.4694 12.2697 11.125 9.99992 11.125Z" fill="#100D18"/>
</svg>
